HIERARCHY
ROOT hip
{
  OFFSET 0 0 0
  CHANNELS 6 Xposition Yposition Zposition Zrotation Yrotation Xrotation
  JOINT abdomen
  {
    OFFSET 0 20.6881 -0.73152
    CHANNELS 3 Zrotation Xrotation Yrotation
    JOINT chest
    {
      OFFSET 0 11.7043 -0.48768
      CHANNELS 3 Zrotation Xrotation Yrotation
      JOINT neck
      {
        OFFSET 0 22.1894 -2.19456
        CHANNELS 3 Zrotation Xrotation Yrotation
        JOINT head
        {
          OFFSET -0.24384 7.07133 1.2192
          CHANNELS 3 Zrotation Xrotation Yrotation
          JOINT leftEye
          {
            OFFSET 4.14528 8.04674 8.04672
            CHANNELS 3 Zrotation Xrotation Yrotation
            End Site
            {
              OFFSET 1 0 0
            }
          }
          JOINT rightEye
          {
            OFFSET -3.6576 8.04674 8.04672
            CHANNELS 3 Zrotation Xrotation Yrotation
            End Site
            {
              OFFSET 1 0 0
            }
          }
        }
      }
      JOINT rCollar
      {
        OFFSET -2.68224 19.2634 -4.8768
        CHANNELS 3 Zrotation Xrotation Yrotation
        JOINT rShldr
        {
          OFFSET -8.77824 -1.95073 1.46304
          CHANNELS 3 Zrotation Xrotation Yrotation
          JOINT rForeArm
          {
            OFFSET -28.1742 -1.7115 0.48768
            CHANNELS 3 Zrotation Xrotation Yrotation
            JOINT rHand
            {
              OFFSET -22.5879 0.773209 7.07136
              CHANNELS 3 Zrotation Xrotation Yrotation
              JOINT rThumb1
              {
                OFFSET -1.2192 -0.487915 3.41376
                CHANNELS 3 Zrotation Xrotation Yrotation
                JOINT rThumb2
                {
                  OFFSET -3.37035 -0.52449 3.41376
                  CHANNELS 3 Zrotation Xrotation Yrotation
                  End Site
                  {
                    OFFSET -1.78271 -1.18214 1.43049
                  }
                }
              }
              JOINT rIndex1
              {
                OFFSET -7.75947 0.938293 5.60832
                CHANNELS 3 Zrotation Xrotation Yrotation
                JOINT rIndex2
                {
                  OFFSET -2.54057 -0.884171 1.56538
                  CHANNELS 3 Zrotation Xrotation Yrotation
                  End Site
                  {
                    OFFSET -1.62519 -0.234802 1.16502
                  }
                }
              }
              JOINT rMid1
              {
                OFFSET -8.24714 1.18213 3.41376
                CHANNELS 3 Zrotation Xrotation Yrotation
                JOINT rMid2
                {
                  OFFSET -3.10165 -0.590103 1.0647
                  CHANNELS 3 Zrotation Xrotation Yrotation
                  End Site
                  {
                    OFFSET -2.48547 -0.328903 0.83742
                  }
                }
              }
              JOINT rRing1
              {
                OFFSET -8.82822 0.546677 1.51678
                CHANNELS 3 Zrotation Xrotation Yrotation
                JOINT rRing2
                {
                  OFFSET -2.60934 -0.819778 -0.0198488
                  CHANNELS 3 Zrotation Xrotation Yrotation
                  End Site
                  {
                    OFFSET -2.33842 -0.294052 0.168128
                  }
                }
              }
              JOINT rPinky1
              {
                OFFSET -8.27202 -0.0477905 -0.4584
                CHANNELS 3 Zrotation Xrotation Yrotation
                JOINT rPinky2
                {
                  OFFSET -1.82734 -0.647385 -0.700984
                  CHANNELS 3 Zrotation Xrotation Yrotation
                  End Site
                  {
                    OFFSET -1.69225 -0.51767 -0.607171
                  }
                }
              }
            }
          }
        }
      }
      JOINT lCollar
      {
        OFFSET 2.68224 19.2634 -4.8768
        CHANNELS 3 Zrotation Xrotation Yrotation
        JOINT lShldr
        {
          OFFSET 8.77824 -1.95073 1.46304
          CHANNELS 3 Zrotation Xrotation Yrotation
          JOINT lForeArm
          {
            OFFSET 28.1742 -1.7115 0.48768
            CHANNELS 3 Zrotation Xrotation Yrotation
            JOINT lHand
            {
              OFFSET 22.5879 0.773209 7.07136
              CHANNELS 3 Zrotation Xrotation Yrotation
              JOINT lThumb1
              {
                OFFSET 1.2192 -0.487915 3.41376
                CHANNELS 3 Zrotation Xrotation Yrotation
                JOINT lThumb2
                {
                  OFFSET 3.37035 -0.52449 3.41376
                  CHANNELS 3 Zrotation Xrotation Yrotation
                  End Site
                  {
                    OFFSET 1.78271 -1.18214 1.43049
                  }
                }
              }
              JOINT lIndex1
              {
                OFFSET 7.75947 0.938293 5.60832
                CHANNELS 3 Zrotation Xrotation Yrotation
                JOINT lIndex2
                {
                  OFFSET 2.54057 -0.884171 1.56538
                  CHANNELS 3 Zrotation Xrotation Yrotation
                  End Site
                  {
                    OFFSET 1.62519 -0.234802 1.16502
                  }
                }
              }
              JOINT lMid1
              {
                OFFSET 8.24714 1.18213 3.41376
                CHANNELS 3 Zrotation Xrotation Yrotation
                JOINT lMid2
                {
                  OFFSET 3.10165 -0.590103 1.0647
                  CHANNELS 3 Zrotation Xrotation Yrotation
                  End Site
                  {
                    OFFSET 2.48547 -0.328903 0.83742
                  }
                }
              }
              JOINT lRing1
              {
                OFFSET 8.82822 0.546677 1.51678
                CHANNELS 3 Zrotation Xrotation Yrotation
                JOINT lRing2
                {
                  OFFSET 2.60934 -0.819778 -0.0198488
                  CHANNELS 3 Zrotation Xrotation Yrotation
                  End Site
                  {
                    OFFSET 2.33842 -0.294052 0.168128
                  }
                }
              }
              JOINT lPinky1
              {
                OFFSET 8.27202 -0.0477905 -0.4584
                CHANNELS 3 Zrotation Xrotation Yrotation
                JOINT lPinky2
                {
                  OFFSET 1.82734 -0.647385 -0.700984
                  CHANNELS 3 Zrotation Xrotation Yrotation
                  End Site
                  {
                    OFFSET 1.69225 -0.51767 -0.607171
                  }
                }
              }
            }
          }
        }
      }
    }
  }
  JOINT rButtock
  {
    OFFSET -8.77824 4.35084 1.2192
    CHANNELS 3 Zrotation Xrotation Yrotation
    JOINT rThigh
    {
      OFFSET 0 -1.70687 -2.19456
      CHANNELS 3 Zrotation Xrotation Yrotation
      JOINT rShin
      {
        OFFSET 0 -36.8199 0.73152
        CHANNELS 3 Zrotation Xrotation Yrotation
        JOINT rFoot
        {
          OFFSET 0.73152 -45.1104 -5.12064
          CHANNELS 3 Zrotation Xrotation Yrotation
          End Site
          {
            OFFSET -1.1221 -3.69964 12.103
          }
        }
      }
    }
  }
  JOINT lButtock
  {
    OFFSET 8.77824 4.35084 1.2192
    CHANNELS 3 Zrotation Xrotation Yrotation
    JOINT lThigh
    {
      OFFSET 0 -1.70687 -2.19456
      CHANNELS 3 Zrotation Xrotation Yrotation
      JOINT lShin
      {
        OFFSET 0 -36.8199 0.73152
        CHANNELS 3 Zrotation Xrotation Yrotation
        JOINT lFoot
        {
          OFFSET -0.73152 -45.1104 -5.12064
          CHANNELS 3 Zrotation Xrotation Yrotation
          End Site
          {
            OFFSET 1.1221 -3.69964 12.103
          }
        }
      }
    }
  }
}
MOTION
Frames:	8
Frame Time:	0.03333
47.381 59.308099999999996 -75.3708 -179.950615 41.069984 -176.379553 -2.022188 13.065787 -150.968856 4.591465 6.669515 164.304226 -6.073897 33.969623 -144.9321 32.411467 44.480917 118.535834 0.004211 -0.0 -0.001864 -0.001435 0.0 -0.000892 -33.843261 -85.665362 -55.260636 -106.802828 61.56526 -146.624734 171.524245 42.261545 33.707522 -157.023712 25.959825 133.241059 -174.088134 -11.753605 89.87551 108.47991 -65.325313 81.512457 -27.171834 30.468188 19.891664 -6.02513 18.570589 3.591298 -8.415721 20.88053 5.645541 80.57655 -77.985246 52.038071 0.000914 0.036176 0.012458 -29.870277 74.832002 42.966951 -126.795957 -26.619921 -124.513705 1.922667 -2.83823 -2.584823 142.97357 39.431423 -147.389592 80.852097 31.669925 -11.029902 86.243547 -25.286599 101.773414 -35.226853 -63.790594 -21.849288 169.319088 -7.001067 -89.922147 121.628044 12.154155 -57.338964 -167.117403 -67.039121 -108.167484 46.129679 54.01817 -36.131696 159.364131 -2.685577 -142.597806 173.617213 -34.797812 -143.385612 0.000656 -0.018537 0.005638 49.751091 77.897398 -63.008393 5.51355 -12.596592 5.175274 24.054708 -41.367435 24.99425 0.000745 -0.000463 -0.000957 -16.724383 -52.822433 -20.662569 -171.442668 72.49582 74.853687 13.976886 1.954878 81.616506 -179.95229 75.74999 -0.039255 -167.497964 24.116371 -28.487542 -86.186769 47.125832 -108.00126 -63.198732 -13.621574 -157.716973
50.0189 58.9657 -79.9828 178.22252 32.749942 -179.454321 -3.845095 18.371501 -0.0 1.242031 -13.033556 10.791842 -11.626701 19.945382 -47.425031 34.806205 -16.441506 35.522211 -0.001284 0.0 -0.002397 0.005208 0.0 0.000962 -158.51476 -30.702259 167.037985 115.620822 14.521158 -81.007483 163.319017 -43.038296 14.831503 -154.516618 29.942442 130.993481 -94.791546 37.828375 54.283811 86.789439 -50.078212 38.570354 -173.599968 -52.692678 119.894531 145.443681 -67.007536 83.992951 -36.036206 51.723074 29.832346 -163.833175 -7.021911 143.477161 -145.10247 -1.437634 -178.675079 -154.295367 71.877112 169.606611 32.015359 83.320578 6.231197 -44.538925 -50.091672 -43.914224 155.548059 -3.80427 -161.90004 94.452822 -25.852748 47.714125 -119.9659 1.768057 -165.747872 143.160491 63.753987 -119.823355 -83.253714 -50.25828 -33.616221 21.115469 -18.321568 20.789158 1.396637 2.231738 -0.807878 171.059883 -26.202682 -108.70375 36.035206 51.723603 -29.831514 -80.698808 -77.900992 -52.069719 145.119416 0.267802 179.212356 150.56772 -34.237489 173.256641 5.512978 -12.597358 5.172282 153.784282 35.886432 148.211163 0.003388 3.2e-05 0.001694 -26.083683 -60.874921 66.756273 103.936516 -5.686526 171.715744 24.908843 -58.53787 116.912462 -0.000608 -0.000593 0.000781 11.120168 -47.541696 -180.0 77.564252 -54.213234 165.16848 94.560602 -48.240817 167.439589
52.987899999999996 59.1372 -84.27590000000001 177.842773 22.65323 178.373573 -3.090026 13.878756 -167.316626 -0.051847 8.99651 172.789506 -0.42432 15.00421 25.721989 -16.225909 -24.983947 -49.945429 -0.004979 0.0 -0.004813 0.002039 0.0 0.002094 -6.250763 26.219392 7.467044 94.23941 -3.429964 99.543151 88.718098 65.055164 35.832602 -21.609999 20.93829 3.665619 71.830376 -48.264263 25.792131 -102.271618 37.34828 68.613481 -135.712322 8.931757 113.079449 -157.735117 -2.551553 117.998743 23.901541 -61.334247 1.397123 -42.33176 58.457141 36.20674 -0.019645 -1.725677 -0.542023 9.837744 -62.544816 -9.191926 12.253512 41.424689 10.280973 -95.083049 -51.716681 -93.683918 -3.542265 -62.053095 13.038503 70.042201 -18.70759 152.899687 102.800611 -58.591671 69.496876 -2.704695 2.421507 -2.165515 -8.270631 -8.26313 0.682013 68.697809 31.569917 -59.724375 83.732275 42.328804 -69.990048 160.4525 -3.512083 -113.950123 -10.08259 -31.592409 3.252036 83.324332 64.320344 -75.186871 -0.006626 1.771273 -0.557179 -10.965363 -13.797449 1.717117 157.326935 57.246459 150.513586 85.641951 -52.338386 84.282773 0.00608 -0.000644 0.00608 -34.889014 -63.550879 74.707224 90.556037 -34.899747 -0.198886 -14.775844 59.392506 -71.949961 -0.0 -0.0002 -0.001057 9.255069 -40.389627 -52.792673 -74.926528 10.254741 75.929276 102.536398 12.834194 -5.097755
55.8399 59.77479999999999 -88.1908 179.263878 11.626188 177.54884 0.283382 13.812076 -129.213714 6.248988 7.817331 128.753101 3.246207 32.114987 150.546744 -17.840918 41.967749 -169.226217 -0.001374 0.0 -0.00349 -4.3e-05 -0.0 0.00439 -149.905383 22.421439 154.974389 -54.86493 -5.378234 -31.572817 -171.284154 -45.110879 -59.665608 -6.907299 5.416917 -1.614162 -2.608255 2.554612 0.457773 -122.919163 -15.938429 109.802763 -1.161873 1.860964 0.66856 -61.005042 48.059175 46.600206 -175.932258 -50.68042 144.035615 2.519383 1.612796 0.52584 -145.100828 -1.523015 -178.649634 -151.278561 -30.275374 -174.220236 17.322229 60.659819 12.790479 -139.476727 -11.805816 -135.744513 -4.23881 -44.742754 8.648306 -98.923256 25.54892 15.194757 118.992999 -21.127586 -126.224231 -61.608717 -62.977077 -51.661027 178.926603 -16.454061 -89.422016 86.811533 13.098734 -31.07073 -37.214528 -57.918218 0.643658 -20.722693 -6.839515 4.75728 160.097832 -4.901324 -142.968516 172.307067 -31.362141 -143.654108 0.005717 -0.831484 0.260483 -10.37058 0.336135 0.027237 -12.98822 44.344276 -10.762357 25.143836 -41.074119 25.181142 0.001095 -0.00048 0.001095 -34.000865 -62.00454 -110.293397 -78.137668 25.306757 -146.251402 -126.495974 -15.430995 149.037086 -0.027724 0.000831 -0.020793 9.600565 -37.708991 170.333786 76.632939 -60.726874 -6.718836 -102.321456 54.981272 -6.252482
58.220000000000006 60.6133 -91.821 -178.70779 0.424591 177.194197 1.234445 16.46353 -4.348071 6.730267 -12.693528 0.394361 4.751657 28.270685 127.747176 -27.88166 32.210794 -149.086829 -0.000933 0.0 -0.001089 0.000163 0.0 0.003587 -14.147514 43.061759 15.995891 -105.074007 20.519542 96.422048 -83.937849 41.009422 -100.497437 32.132956 -50.129698 23.459232 113.261992 -50.39881 54.830863 -13.221601 -73.20113 -37.415859 -27.421514 30.639674 20.097825 -60.289453 48.466792 42.88833 179.733709 -58.400938 141.959821 -163.099871 -3.717959 142.931711 -0.014318 -1.32297 -0.417073 7.018688 29.715924 4.678129 -85.782438 -50.535884 -84.155386 -104.261144 -47.055813 -104.193183 159.221678 -48.725234 -170.566345 88.932304 -21.647267 71.821175 91.936232 4.339773 27.548504 -61.60464 -74.315691 -45.14629 167.568485 -5.243798 -89.838299 -145.990007 -44.43937 -95.356708 46.208091 39.654072 -36.317067 -179.704706 -33.382091 -109.166418 36.036435 51.723149 -29.832009 154.940936 17.564286 -139.304881 0.000506 -0.018474 0.006051 155.723117 -6.070123 -172.586198 146.208016 15.406004 142.729751 77.996546 -52.814304 77.515084 179.995072 75.749226 0.005085 159.13559 13.589579 93.765929 54.834545 -2.346512 -98.3038 -132.307981 -46.307632 24.218438 -179.971122 75.750832 -0.023761 -164.350901 41.44496 -10.26932 -65.461283 61.286174 -22.793313 47.684666 -24.536379 116.711058
60.282199999999996 60.69409999999999 -95.18769999999999 -176.529841 -9.921605 176.676752 2.586254 10.510804 166.092686 -9.924312 5.547855 -176.291105 -13.347176 16.500849 -32.684486 22.206892 -20.756336 5.899077 -0.000188 -0.0 0.002055 -0.000193 0.0 -0.001 2.459924 -18.216243 -3.670322 -112.044351 -1.618937 159.721892 177.476448 -14.036494 -79.873175 -15.429503 60.891755 9.322971 -0.492071 0.484522 0.076796 -136.817803 -39.324716 118.316889 -1.956701 3.105259 1.142315 -167.993354 -22.110943 109.410992 -0.057351 0.167774 0.033727 5.921152 -8.197335 -0.921229 0.004329 1.771171 0.557898 -155.554057 -1.105549 171.98142 -104.235716 -44.890866 -102.394844 -154.01337 36.340512 -146.771559 158.418309 -29.366559 -166.792887 -122.548222 20.50794 154.669112 34.044223 29.142014 -123.47799 18.338914 -76.539674 27.483202 -13.163286 -13.116064 0.521242 69.969272 33.354158 -58.893426 -5.919381 -10.175106 2.968813 159.905294 -13.149764 -110.355388 0.339066 0.981951 -0.190222 1.304992 12.640092 -2.166315 0.022898 -1.726186 0.541535 -9.221155 14.191322 -1.878523 75.77965 -51.668928 74.249013 -4.199387 2.100704 0.276974 179.993919 75.749523 0.005003 156.490923 18.216104 -180.0 -1.713279 -52.340951 -79.057576 14.350149 -17.349521 -102.88855 0.0 0.000118 -0.000274 18.482917 -31.661369 10.270501 -70.905009 65.733245 -43.035793 112.549482 -30.84998 170.695517
61.9482 59.6003 -98.1083 -174.659597 -16.949378 175.543242 3.618947 14.53697 -7.303408 9.975013 -10.803647 -5.556944 3.749118 30.356736 133.202903 -25.862639 34.960084 -161.882244 -0.002908 0.0 -0.001169 0.003702 0.0 0.002826 -0.04909 0.292394 0.06496 -152.240238 -44.87711 133.787563 -174.169986 67.663236 -97.125251 -9.983473 46.395336 4.693209 93.028706 -51.08413 40.500534 -15.917993 -45.576708 -30.704298 -19.169832 24.114931 13.38045 52.785527 -49.706415 12.111604 -36.035957 51.723324 29.83182 11.576141 -24.900418 -1.457833 -0.05929 -3.508501 -1.104181 -151.213511 32.028581 166.598448 3.761848 10.729689 3.416808 2.303718 0.081396 0.018825 -0.118328 -0.714007 0.158131 -74.788123 15.217427 2.036721 -83.746365 43.820581 -49.139255 26.596417 -2.010951 -5.722706 -81.971785 -50.092073 -32.722401 137.37586 16.569039 -102.397871 148.885253 -12.610336 -120.244137 169.213492 -30.141177 -118.533996 0.285991 0.832851 -0.160311 4.006233 19.203815 -3.793863 145.110966 -0.66833 178.917884 -12.190997 44.870156 3.844125 -1.134615 3.040944 -1.041421 -61.438128 85.771432 23.249873 -179.995501 75.74914 -0.003078 154.038445 22.537851 -104.560539 -42.408983 -22.774457 55.103589 23.510295 42.73311 23.758688 0.00084 -0.001052 -0.0 23.74085 -33.883991 -141.730231 -74.670506 -70.192973 -178.631219 107.088091 -67.756001 23.721364
63.267700000000005 58.003800000000005 -100.20469999999999 -174.378597 -18.522941 174.544401 2.099623 14.922482 -0.456336 8.167324 -11.674907 -9.596597 4.146002 20.616034 64.284107 -31.613851 -3.783042 -106.550715 -0.001526 -0.0 0.002492 -0.001526 -0.0 0.002492 -159.219642 -48.028441 170.415755 0.903501 0.922813 -38.068509 16.902596 -81.69316 -98.895924 155.789472 -36.770307 138.838181 -78.030371 38.690569 42.412525 -118.997328 -16.354363 79.051297 -155.193168 -24.300182 122.142517 145.582579 -67.267824 86.768154 -22.287512 41.333517 17.258428 -163.188957 -4.958805 143.313883 0.000128 0.063626 0.020584 4.294012 41.438293 7.707033 -166.306833 78.432142 -149.217399 -26.034933 -40.498035 -26.187165 9.651815 34.836138 -11.199395 95.931861 3.598805 -148.304194 -120.063953 -49.126711 124.911581 22.348951 -6.701223 -0.784814 -27.4511 -26.099045 -2.268027 -5.30863 -39.185283 27.263056 151.35326 -17.158891 -121.131933 -10.794963 0.942741 9.732931 158.521931 -0.192399 -142.144233 42.478481 58.275811 -36.604135 67.605486 -72.075679 84.373065 58.003049 -82.397994 83.905549 124.853164 -29.038853 122.621341 -3.148551 0.126918 1.602909 -179.979655 75.749515 -0.016739 151.235373 23.933284 11.997077 -3.259973 53.382429 -89.988857 118.768537 -57.028563 -112.771942 -0.006966 -0.000174 -0.006966 25.346187 -30.868503 14.109675 -49.889052 74.097299 36.196763 24.441549 -19.282918 36.2543
